<svg xmlns="http://www.w3.org/2000/svg" viewBox="0 0 183.8 183.8"><g fill="#FFF"><path d="M91.5 11.8c43.9 0 79.7 35.7 79.7 79.7s-35.7 79.7-79.7 79.7-79.7-35.7-79.7-79.7 35.8-79.7 79.7-79.7m0-10.8C41.5 1 1 41.5 1 91.5S41.5 182 91.5 182 182 141.5 182 91.5 141.5 1 91.5 1z"/><path d="M53.4 124c-1.1 0-2-.9-2-2V67h-7.2c-1.1 0-2-.9-2-2v-4c0-1.1.9-2 2-2h13.5c1.1 0 2 .9 2 2v61c0 1.1-.9 2-2 2h-4.3zM121.2 124c-1.1 0-2-.9-2-2V61c0-1.1.9-2 2-2h22.5c1.1 0 2 .9 2 2v4c0 1.1-.9 2-2 2h-16.2v19.5h13.2c1.1 0 2 .9 2 2v4c0 1.1-.9 2-2 2h-13.2v27.6c0 1.1-.9 2-2 2h-4.3zM89.5 125c-11 0-19.9-8.9-19.9-19.9 0-6.6 3.2-12.6 8.5-16.3-3.8-3.3-6.1-8.1-6.1-13.2 0-9.7 7.9-17.5 17.5-17.5S107 65.9 107 75.5c0 5.1-2.3 9.9-6.1 13.2 5.3 3.7 8.5 9.7 8.5 16.3 0 11.1-9 20-19.9 20zm0-31.9c-6.6 0-12 5.4-12 12s5.4 12 12 12 12-5.4 12-12c-.1-6.6-5.4-12-12-12zm0-27.1c-5.3 0-9.6 4.3-9.6 9.6s4.3 9.6 9.6 9.6 9.6-4.3 9.6-9.6-4.4-9.6-9.6-9.6z"/></g></svg>