<?xml version="1.0" encoding="UTF-8" standalone="no"?>
<svg width="184px" height="184px" viewBox="0 0 184 184" version="1.1" xmlns="http://www.w3.org/2000/svg" xmlns:xlink="http://www.w3.org/1999/xlink" xmlns:sketch="http://www.bohemiancoding.com/sketch/ns">
    <!-- Generator: Sketch 3.4.1 (15681) - http://www.bohemiancoding.com/sketch -->
    <title>18f-logo</title>
    <desc>Created with Sketch.</desc>
    <defs></defs>
    <g id="Page-1" stroke="none" stroke-width="1" fill="none" fill-rule="evenodd" sketch:type="MSPage">
        <g id="18f-logo" sketch:type="MSArtboardGroup">
            <g id="Page-1" sketch:type="MSLayerGroup">
                <path d="M0,184 L183.8,184 L183.8,0.2 L0,0.2 L0,184 Z" id="Fill-1" fill="#1188FF" sketch:type="MSShapeGroup"></path>
                <path d="M83.7081,102.7553 L70.4431,102.7553 L69.9531,102.7553 L69.9531,103.2453 L69.9531,105.7933 L69.9531,106.2833 L70.4431,106.2833 L80.3191,106.2833 L80.3191,168.9533 L80.3191,169.4433 L80.8091,169.4433 L83.7081,169.4433 L84.1981,169.4433 L84.1981,168.9533 L84.1981,103.2453 L84.1981,102.7553 L83.7081,102.7553 Z" id="Fill-2" fill="#FFFFFF" sketch:type="MSShapeGroup"></path>
                <g id="Group-7" transform="translate(92.000000, 101.000000)" fill="#FFFFFF" sketch:type="MSShapeGroup">
                    <path d="M22.849,4.1409 C25.6,4.1409 28.041,5.1719 30.103,7.2059 C32.163,9.2399 33.208,11.6499 33.208,14.3679 C33.208,17.0879 32.163,19.4969 30.103,21.5299 C28.042,23.5639 25.602,24.5949 22.849,24.5949 C20.097,24.5949 17.672,23.5639 15.641,21.5319 C13.608,19.5009 12.578,17.0909 12.578,14.3679 C12.578,11.6459 13.608,9.2359 15.641,7.2039 C17.673,5.1709 20.098,4.1409 22.849,4.1409 M23.332,66.1459 C18.161,66.1459 13.652,64.2579 9.931,60.5349 C6.208,56.8139 4.321,52.3199 4.321,47.1779 C4.321,42.0379 6.223,37.5139 9.976,33.7319 C13.728,29.9519 18.237,28.0349 23.376,28.0349 C28.514,28.0349 32.993,29.9359 36.687,33.6869 C40.382,37.4389 42.256,41.9639 42.256,47.1339 C42.256,52.3049 40.383,56.8149 36.688,60.5369 C32.995,64.2589 28.501,66.1459 23.332,66.1459 M41.423,33.4849 C38.544,29.7009 34.896,27.1209 30.566,25.8019 C32.383,24.6589 33.868,23.1799 34.991,21.3929 C36.324,19.2729 36.999,16.9389 36.999,14.4559 C36.999,10.6469 35.604,7.3659 32.853,4.7039 C30.105,2.0479 26.739,0.7009 22.849,0.7009 C18.957,0.7009 15.605,2.0479 12.887,4.7059 C10.166,7.3669 8.787,10.6479 8.787,14.4559 C8.787,16.9429 9.523,19.3379 10.974,21.5749 C12.197,23.4599 13.72,24.9539 15.513,26.0299 C11.289,27.5369 7.749,30.1599 4.976,33.8379 C1.967,37.8309 0.441,42.2749 0.441,47.0459 C0.441,53.1859 2.707,58.5489 7.175,62.9869 C11.641,67.4239 17.077,69.6739 23.332,69.6739 C29.587,69.6739 35.009,67.4389 39.446,63.0299 C43.884,58.6219 46.135,53.2439 46.135,47.0459 C46.135,42.1569 44.55,37.5939 41.423,33.4849" id="Fill-3"></path>
                    <path d="M78.3213,1.5792 L54.8673,1.5792 L54.3773,1.5792 L54.3773,2.0692 L54.3773,67.9532 L54.3773,68.4432 L54.8673,68.4432 L57.7663,68.4432 L58.2563,68.4432 L58.2563,67.9532 L58.2563,43.3192 L74.8953,43.3192 L75.3853,43.3192 L75.3853,42.8292 L75.3853,40.2822 L75.3853,39.7922 L74.8953,39.7922 L58.2563,39.7922 L58.2563,5.1072 L78.3213,5.1072 L78.8113,5.1072 L78.8113,4.6172 L78.8113,2.0692 L78.8113,1.5792 L78.3213,1.5792 Z" id="Fill-5"></path>
                </g>
            </g>
        </g>
    </g>
</svg>